<?xml version="1.0" encoding="UTF-8"?>
<svg xmlns="http://www.w3.org/2000/svg" version="1.1" viewBox="0 0 512 512">
  <!-- Generator: Adobe Illustrator 29.8.2, SVG Export Plug-In . SVG Version: 2.1.1 Build 3)  -->
  <defs>
    <style>
      .st0 {
        fill: #fff;
      }

      .st1 {
        fill: #484a4d;
      }

      .st2 {
        fill: #1771c7;
      }

      .st3 {
        fill: #f4f5f5;
      }

      .st4 {
        fill: #fd6415;
      }

      .st5 {
        fill: #ebebeb;
      }

      .st6 {
        opacity: .3;
      }
    </style>
  </defs>
  <g id="_Слой_2" data-name="Слой_2">
    <rect class="st3" x="34.7" y="34.7" width="442.7" height="442.7" rx="62.1" ry="62.1"/>
    <g class="st6">
      <rect class="st5" x="48" y="413.6" width="416.1" height=".3"/>
      <rect class="st5" x="48" y="391.1" width="416.1" height=".3"/>
      <rect class="st5" x="48" y="368.5" width="416.1" height=".3"/>
      <rect class="st5" x="48" y="346" width="416.1" height=".3"/>
      <rect class="st5" x="48" y="323.4" width="416.1" height=".3"/>
      <rect class="st5" x="48" y="300.9" width="416.1" height=".3"/>
      <rect class="st5" x="48" y="278.4" width="416.1" height=".3"/>
      <rect class="st5" x="48" y="255.8" width="416.1" height=".3"/>
      <rect class="st5" x="48" y="233.3" width="416.1" height=".3"/>
      <rect class="st5" x="48" y="210.8" width="416.1" height=".3"/>
      <rect class="st5" x="48" y="188.2" width="416.1" height=".3"/>
      <rect class="st5" x="48" y="165.7" width="416.1" height=".3"/>
      <rect class="st5" x="48" y="143.1" width="416.1" height=".3"/>
      <rect class="st5" x="48" y="120.6" width="416.1" height=".3"/>
      <rect class="st5" x="48" y="98.1" width="416.1" height=".3"/>
      <rect class="st5" x="48" y="86.8" width="416.1" height=".3"/>
      <rect class="st5" x="48" y="424.9" width="416.1" height=".3"/>
      <rect class="st5" x="48" y="402.3" width="416.1" height=".3"/>
      <rect class="st5" x="48" y="379.8" width="416.1" height=".3"/>
      <rect class="st5" x="48" y="357.3" width="416.1" height=".3"/>
      <rect class="st5" x="48" y="334.7" width="416.1" height=".3"/>
      <rect class="st5" x="48" y="312.2" width="416.1" height=".3"/>
      <rect class="st5" x="48" y="289.6" width="416.1" height=".3"/>
      <rect class="st5" x="48" y="267.1" width="416.1" height=".3"/>
      <rect class="st5" x="48" y="244.6" width="416.1" height=".3"/>
      <rect class="st5" x="48" y="222" width="416.1" height=".3"/>
      <rect class="st5" x="48" y="199.5" width="416.1" height=".3"/>
      <rect class="st5" x="48" y="177" width="416.1" height=".3"/>
      <rect class="st5" x="48" y="154.4" width="416.1" height=".3"/>
      <rect class="st5" x="48" y="131.9" width="416.1" height=".3"/>
      <rect class="st5" x="48" y="109.3" width="416.1" height=".3"/>
      <rect class="st5" x="98.1" y="47.9" width=".3" height="416.1"/>
      <rect class="st5" x="120.6" y="47.9" width=".3" height="416.1"/>
      <rect class="st5" x="143.1" y="47.9" width=".3" height="416.1"/>
      <rect class="st5" x="165.7" y="47.9" width=".3" height="416.1"/>
      <rect class="st5" x="188.2" y="47.9" width=".3" height="416.1"/>
      <rect class="st5" x="210.8" y="47.9" width=".3" height="416.1"/>
      <rect class="st5" x="233.3" y="47.9" width=".3" height="416.1"/>
      <rect class="st5" x="255.8" y="47.9" width=".3" height="416.1"/>
      <rect class="st5" x="278.4" y="47.9" width=".3" height="416.1"/>
      <rect class="st5" x="300.9" y="47.9" width=".3" height="416.1"/>
      <rect class="st5" x="323.4" y="47.9" width=".3" height="416.1"/>
      <rect class="st5" x="346" y="47.9" width=".3" height="416.1"/>
      <rect class="st5" x="368.5" y="47.9" width=".3" height="416.1"/>
      <rect class="st5" x="391.1" y="47.9" width=".3" height="416.1"/>
      <rect class="st5" x="413.6" y="47.9" width=".3" height="416.1"/>
      <rect class="st5" x="424.7" y="47.9" width=".3" height="416.1"/>
      <rect class="st5" x="86.8" y="47.9" width=".3" height="416.1"/>
      <rect class="st5" x="109.3" y="47.9" width=".3" height="416.1"/>
      <rect class="st5" x="131.8" y="47.9" width=".3" height="416.1"/>
      <rect class="st5" x="154.4" y="47.9" width=".3" height="416.1"/>
      <rect class="st5" x="176.9" y="47.9" width=".3" height="416.1"/>
      <rect class="st5" x="199.5" y="47.9" width=".3" height="416.1"/>
      <rect class="st5" x="222" y="47.9" width=".3" height="416.1"/>
      <rect class="st5" x="244.5" y="47.9" width=".3" height="416.1"/>
      <rect class="st5" x="267.1" y="47.9" width=".3" height="416.1"/>
      <rect class="st5" x="289.6" y="47.9" width=".3" height="416.1"/>
      <rect class="st5" x="312.2" y="47.9" width=".3" height="416.1"/>
      <rect class="st5" x="334.7" y="47.9" width=".3" height="416.1"/>
      <rect class="st5" x="357.2" y="47.9" width=".3" height="416.1"/>
      <rect class="st5" x="379.8" y="47.9" width=".3" height="416.1"/>
      <rect class="st5" x="402.3" y="47.9" width=".3" height="416.1"/>
    </g>
  </g>
  <g id="_Слой_3" data-name="Слой_3">
    <g>
      <path class="st1" d="M206.6,190.5h0c3.9,0,7.1,3.2,7.1,7.1v72.2h-14.3v-72.2c0-3.9,3.2-7.1,7.1-7.1Z" transform="translate(-100.4 268) rotate(-55.1)"/>
      <path class="st1" d="M317.5,138.2h0c3.9,0,7.1,3.2,7.1,7.1v124.2h-14.3v-124.2c0-3.9,3.2-7.1,7.1-7.1Z" transform="translate(248.7 -167.1) rotate(46.8)"/>
      <circle class="st2" cx="255.3" cy="256.9" r="23.9"/>
      <circle class="st0" cx="255.3" cy="256.9" r="14"/>
    </g>
    <g>
      <path class="st2" d="M97.7,248.4h0c4.1,0,7.6-3.1,8-7.2,6.9-71.2,63.2-127.9,134.1-135.6,4-.4,7.1-3.9,7.1-7.9h0c0-4.8-4.1-8.5-8.9-8-78.4,8.5-140.6,71.2-148.3,149.9-.5,4.7,3.2,8.8,8,8.8Z"/>
      <path class="st4" d="M406.3,274.1c-8.3,69.6-63.9,124.8-133.8,132.3-4,.4-7.1,3.9-7.1,7.9h0c0,4.8,4.1,8.5,8.8,8,77.3-8.3,138.8-69.3,147.9-146.3.6-4.8-3.2-8.9-8-8.9h0c-4,0-7.5,3-7.9,7Z"/>
    </g>
  </g>
</svg>